<svg xmlns="http://www.w3.org/2000/svg" xmlns:xlink="http://www.w3.org/1999/xlink" width="1040" height="260" viewBox="0 0 1040 260"><defs><style>.cls-1{fill:#636363;}.cls-2{fill:#ff0;}.cls-3{fill:#fddd07;}</style><symbol id="ikon1" data-name="ikon1" viewBox="0 0 260 260"><rect class="cls-1" width="260" height="260"/><polygon class="cls-2" points="103 28 106 236 0 132 103 28"/><polygon class="cls-2" points="150 23 150 233 257 128 150 23"/><polygon class="cls-3" points="17 31 17 105 92 31 17 31"/><polygon class="cls-3" points="165 31 236 98 236 31 165 31"/><polygon class="cls-3" points="165 233 234 159 236 233 165 233"/><polygon class="cls-3" points="17 159 17 236 92 233 17 159"/><polygon class="cls-3" points="127 41 201 120 130 210 54 125 127 41"/></symbol><symbol id="ikon2" data-name="ikon2" viewBox="0 0 260 260"><polyline class="cls-1" points="0 0 260 0 260 260 0 260 0 0"/><polygon class="cls-2" points="130 0 231 107 25 107 130 0"/><polygon class="cls-2" points="19 152 231 152 128 260 19 152"/><polygon class="cls-3" points="93 28 19 102 19 28 93 28"/><polygon class="cls-3" points="165 28 236 97 236 28 165 28"/><polygon class="cls-3" points="19 159 93 234 19 237 19 159"/><polygon class="cls-3" points="236 159 239 231 165 231 236 159"/><polygon class="cls-3" points="128 49 200 127 128 215 50 130 128 49"/></symbol><symbol id="ikon4" data-name="ikon4" viewBox="0 0 260 260"><rect class="cls-1" width="260" height="260"/><polygon class="cls-2" points="9 29 114 130 12 237 9 29"/><polygon class="cls-2" points="250 29 249 238 145 133 250 29"/><polygon class="cls-3" points="130 44 210 130 135 213 59 134 130 44"/><polygon class="cls-3" points="24 23 130 23 77 74 24 23"/><polygon class="cls-3" points="144 23 243 23 190 74 144 23"/><polygon class="cls-3" points="184 189 236 240 136 239 184 189"/><polygon class="cls-3" points="77 185 128 239 24 237 77 185"/></symbol><symbol id="ikon3" data-name="ikon3" viewBox="0 0 260 260"><rect class="cls-1" width="260" height="260"/><polygon class="cls-2" points="14 94 161 242 11 242 14 94"/><polyline class="cls-2" points="89 18 235 168 238 22 89 18"/><polygon class="cls-3" points="64 73 174 70 193 185 78 185 64 73"/><polygon class="cls-3" points="145 42 212 107 212 42 145 42"/><polyline class="cls-3" points="42.89 145.16 111.11 219.84 41.13 218.14"/><polygon class="cls-3" points="89 18 14 94 14 18 89 18"/><polygon class="cls-3" points="235 168 238 239 161 242 235 168"/></symbol></defs><title>Asset 1</title><g id="Layer_2" data-name="Layer 2"><g id="Layer_5" data-name="Layer 5"><use width="260" height="260" xlink:href="#ikon1"/><use width="260" height="260" transform="translate(260.5)" xlink:href="#ikon2"/><use width="260" height="260" transform="translate(520.5)" xlink:href="#ikon4"/><use width="260" height="260" transform="translate(780)" xlink:href="#ikon3"/></g></g></svg>